<svg width="16" height="16" viewBox="0 0 16 16" fill="none" xmlns="http://www.w3.org/2000/svg">
<g id="&#240;&#159;&#167;&#172;d.chevron-right">
<path id="shape" d="M7.078 2.32812C7.17167 2.24479 7.281 2.20312 7.406 2.20312C7.531 2.20312 7.64033 2.24479 7.734 2.32812L12.906 7.65613C12.9997 7.74979 13.0465 7.86446 13.0465 8.00012C13.0465 8.13579 12.9997 8.25046 12.906 8.34412L7.734 13.6721C7.64033 13.7555 7.531 13.7971 7.406 13.7971C7.281 13.7971 7.17167 13.7503 7.078 13.6566C6.98433 13.563 6.9375 13.4536 6.9375 13.3286C6.9375 13.2036 6.98433 13.0943 7.078 13.0006L11.953 8.00062L7.078 3.00062C6.98433 2.90696 6.9375 2.79762 6.9375 2.67262C6.9375 2.54762 6.98433 2.43296 7.078 2.32862V2.32812ZM3.078 2.32812C3.17167 2.24479 3.281 2.20312 3.406 2.20312C3.531 2.20312 3.64033 2.24479 3.734 2.32812L8.906 7.65613C8.99967 7.74979 9.0465 7.86446 9.0465 8.00012C9.0465 8.13579 8.99967 8.25046 8.906 8.34412L3.734 13.6721C3.64033 13.7555 3.531 13.7971 3.406 13.7971C3.281 13.7971 3.17167 13.7503 3.078 13.6566C2.98433 13.563 2.9375 13.4536 2.9375 13.3286C2.9375 13.2036 2.98433 13.0943 3.078 13.0006L7.953 8.00062L3.078 3.00062C2.98433 2.90696 2.9375 2.79762 2.9375 2.67262C2.9375 2.54762 2.98433 2.43296 3.078 2.32862V2.32812Z" fill="white"/>
</g>
</svg>
