<svg width="96" height="96" viewBox="0 0 96 96" fill="none" xmlns="http://www.w3.org/2000/svg">
<g id="&#240;&#159;&#167;&#172;document.add">
<path id="shape" d="M78 36H54V12H18V84H78V36ZM75.564 30L60 14.436V30H75.564ZM15 6H60L84 30V87C84 87.876 83.719 88.595 83.157 89.157C82.595 89.719 81.876 90 81 90H15C14.124 90 13.405 89.719 12.843 89.157C12.281 88.595 12 87.876 12 87V9C12 8.124 12.281 7.405 12.843 6.843C13.405 6.281 14.124 6 15 6ZM45 54V42H51V54H63V60H51V72H45V60H33V54H45Z" fill="#0067F5"/>
</g>
</svg>
